<svg width="37" height="37" viewBox="0 0 37 37" fill="none" xmlns="http://www.w3.org/2000/svg">
<path d="M33.2281 6.16671C33.088 6.15227 32.9468 6.15227 32.8067 6.16671H4.02891C3.84447 6.16955 3.66125 6.19721 3.48419 6.24893L18.3356 21.0387L33.2281 6.16671Z" fill="black"/>
<path d="M34.7491 7.59534L19.7847 22.4981C19.3996 22.881 18.8786 23.0959 18.3355 23.0959C17.7925 23.0959 17.2715 22.881 16.8864 22.4981L2.05553 7.70839C2.00993 7.87596 1.98576 8.04863 1.98358 8.22228V28.7778C1.98358 29.323 2.20015 29.8458 2.58564 30.2313C2.97113 30.6168 3.49397 30.8334 4.03914 30.8334H32.8169C33.3621 30.8334 33.8849 30.6168 34.2704 30.2313C34.6559 29.8458 34.8725 29.323 34.8725 28.7778V8.22228C34.8643 8.00815 34.8227 7.79661 34.7491 7.59534ZM5.44719 28.7778H4.01858V27.3081L11.4905 19.8978L12.9397 21.347L5.44719 28.7778ZM32.7964 28.7778H31.3575L23.865 21.347L25.3141 19.8978L32.7861 27.3081L32.7964 28.7778Z" fill="black"/>
</svg>
