<svg width="35" height="35" viewBox="0 0 35 35" fill="none" xmlns="http://www.w3.org/2000/svg">
<path d="M17.5 16.7708C16.5331 16.7708 15.6057 16.3867 14.922 15.703C14.2383 15.0192 13.8542 14.0919 13.8542 13.125C13.8542 12.158 14.2383 11.2307 14.922 10.547C15.6057 9.86324 16.5331 9.47913 17.5 9.47913C18.4669 9.47913 19.3943 9.86324 20.078 10.547C20.7617 11.2307 21.1458 12.158 21.1458 13.125C21.1458 13.6037 21.0515 14.0778 20.8683 14.5202C20.6851 14.9625 20.4165 15.3644 20.078 15.703C19.7394 16.0415 19.3375 16.31 18.8952 16.4933C18.4529 16.6765 17.9788 16.7708 17.5 16.7708ZM17.5 2.91663C14.7926 2.91663 12.196 3.99214 10.2816 5.90658C8.36717 7.82101 7.29166 10.4175 7.29166 13.125C7.29166 20.7812 17.5 32.0833 17.5 32.0833C17.5 32.0833 27.7083 20.7812 27.7083 13.125C27.7083 10.4175 26.6328 7.82101 24.7184 5.90658C22.8039 3.99214 20.2074 2.91663 17.5 2.91663Z" fill="black"/>
</svg>
